<?xml version="1.0" encoding="utf-8"?>
<!-- Generator: Adobe Illustrator 16.0.0, SVG Export Plug-In . SVG Version: 6.00 Build 0)  -->
<!DOCTYPE svg PUBLIC "-//W3C//DTD SVG 1.1 Tiny//EN" "http://www.w3.org/Graphics/SVG/1.1/DTD/svg11-tiny.dtd">
<svg version="1.1" baseProfile="tiny" id="Layer_1" xmlns="http://www.w3.org/2000/svg" xmlns:xlink="http://www.w3.org/1999/xlink"
	 x="0px" y="0px" width="386px" height="386px" viewBox="0 0 386 386" xml:space="preserve">
<path fill-rule="evenodd" fill="#FFFFFF" d="M0.076,370c23.081-11.785,40.187-29.274,50.712-53.064
	c3.787-8.561,9.659-15.545,16.83-21.414c7.989-6.537,16.207-12.794,24.243-19.274c11.56-9.322,19.049-20.845,21.538-35.919
	c2.152-13.039,9.5-24.053,16.955-34.759c6.66-9.564,13.605-18.936,20.119-28.598c7.235-10.732,12.604-22.336,14.575-35.271
	c0.817-5.366,4.859-8.195,8.593-11.155c5.803-4.601,12.724-7.215,19.459-10.085c10.42-4.441,19.846-9.995,26.241-19.886
	c3.303-5.11,9.369-6.479,14.686-5.964c11.355,1.1,19.459-2.792,27.51-10.92c10.418-10.52,21.045-10.734,33.316-3.936
	c6.611,3.662,10.248,9.36,11.902,16.467c0.73,3.147,2.082,5.453,5.227,6.718c2.889,1.163,5.063,0.87,6.916-1.822
	c9.787-14.201,22.477-25.872,33.832-38.708c1.729-1.955,3.885-3.363,6.301-3.857C372.133,55.87,379.527,46.471,386.076,36
	c0,11.333,0,22.667,0,34c-6.154,7.889-12.275,15.915-20.021,22.247c-8.033,6.569-12.883,15.07-17.291,24.083
	c-4.977,10.173-9.686,20.523-16.75,29.496c-3.492,4.438-6.834,9.589-12.205,11.52c-7.088,2.546-12.377,7.004-17.246,12.337
	c-5.043,5.525-9.49,11.656-15.932,15.762c-1.982,1.263-1.895,2.851-1.018,4.749c1.889,4.083,3.852,8.142,5.482,12.328
	c1.627,4.171,3.355,5.345,7.543,2.316c8.109-5.865,17.621-8.616,27.357-10.372c6.582-1.187,9.75,2.129,8.709,8.621
	c-0.316,1.974-0.727,3.932-1.066,5.9c-2.287,13.21-6.863,17.252-20.33,17.729c-4.992,0.177-9.996,0.064-14.992,0.155
	c-6.289,0.114-10.736,2.528-12.588,9.12c-1.305,4.655-2.965,9.254-3.488,14.041c-1.867,17.061-9.172,31.839-18.469,45.898
	c-7.35,11.114-15.43,21.744-22.109,33.306c-1.268,2.194-2.178,4.438-2.615,6.953c-1.754,10.092-2.32,19.521,6.754,27.291
	c4.297,3.677,3.047,8.714-1.475,12.474c-1.504,1.25-3.646,2.115-2.932,4.664c0.652,2.327,2.789,2.683,4.727,3.114
	c2.324,0.518,4.543,1.131,5.955,3.267c-19,0-38,0-57,0c0.609-6.009,2.674-8.419,8.23-9.617c4.75-1.023,6.811-3.906,5.811-8.887
	c-0.516-2.57-1.795-4.988-2.74-7.473c-0.848-2.225-1.676-4.524,0.078-6.626c3.639-4.364,4.168-9.673,4.859-14.973
	c0.604-4.634,1.072-9.374,5.164-12.571c4.795-3.747,7.441-8.861,9.383-14.455c3.268-9.411,3.654-19.254,4.49-29.044
	c0.939-11.002,2.355-21.876,8.895-31.345c1.332-1.931,4.955-3.516,3.516-5.911c-1.492-2.481-4.92-0.362-7.492-0.455
	c-0.33-0.012-0.664,0.046-0.996,0.073c-14.977,1.207-18.354-0.92-23.217-15.104c-0.85-2.479-0.939-5.221-1.355-7.845
	c-0.494-3.11-0.459-6.644-3.93-8.098c-3.252-1.363-5.205,1.548-7.348,3.154c-15.616,11.705-27.877,26.661-40.1,41.651
	c-15.074,18.486-30.204,36.923-50.814,49.766c-0.69,0.43-1.313,1.055-1.796,1.714c-12.849,17.573-29.947,30.233-48.317,41.281
	c-7.862,4.729-15.324,9.376-17.245,19.272c-0.211,1.087-1.081,2.049-1.653,3.063c-2.841,5.03-7.738,8.172-11.423,12.427
	c-8.167,0-16.335-0.098-24.499,0.065c-2.155,0.044-2.66-0.406-2.567-2.568C0.219,379.673,0.076,374.833,0.076,370z"/>
</svg>
