<?xml version="1.0" encoding="utf-8"?>
<!-- Generator: Adobe Illustrator 16.0.0, SVG Export Plug-In . SVG Version: 6.00 Build 0)  -->
<!DOCTYPE svg PUBLIC "-//W3C//DTD SVG 1.1 Tiny//EN" "http://www.w3.org/Graphics/SVG/1.1/DTD/svg11-tiny.dtd">
<svg version="1.1" baseProfile="tiny" id="Layer_1" xmlns="http://www.w3.org/2000/svg" xmlns:xlink="http://www.w3.org/1999/xlink"
	 x="0px" y="0px" width="839px" height="485px" viewBox="0 0 839 485" xml:space="preserve">
<g>
	<g>
		<path fill-rule="evenodd" fill="#FBFDFD" d="M420.5,486c-138.333,0-276.667-0.018-415,0.094c-3.749,0.004-4.597-0.844-4.594-4.594
			c0.109-158.666,0.109-317.333,0-476C0.904,1.752,1.75,0.905,5.5,0.907c276.667,0.102,553.333,0.102,830,0
			c3.748-0.001,4.598,0.842,4.595,4.593c-0.109,158.667-0.109,317.333,0,476c0.003,3.749-0.844,4.598-4.594,4.594
			C697.167,485.982,558.833,486,420.5,486z M837.101,74.706c-6.524,8.236-13.228,16.354-21.3,23.109
			c-5.001,4.185-8.414,9.285-11.373,14.945c-6.392,12.23-11.589,25.142-20.145,36.16c-3.473,4.471-6.754,9.931-12.054,11.646
			c-7.96,2.577-13.47,7.669-18.675,13.568c-4.625,5.241-8.855,10.896-14.964,14.584c-1.966,1.187-1.691,2.382-0.868,4.125
			c2.203,4.664,4.375,9.354,6.272,14.147c1.159,2.929,2.282,3.451,4.965,1.469c8.488-6.271,18.335-9.339,28.542-11.335
			c7.929-1.55,10.79,1.244,9.494,9.032c-0.438,2.626-1.01,5.229-1.48,7.85c-1.966,10.951-6.594,15.223-17.725,15.85
			c-5.817,0.327-11.662,0.145-17.492,0.283c-6.206,0.147-10.783,2.285-12.437,9.079c-1.021,4.192-2.619,8.287-3.079,12.589
			c-1.915,17.895-9.469,33.447-19.352,48.147c-7.152,10.639-14.806,20.941-21.363,31.984c-1.583,2.665-2.25,5.451-2.88,8.397
			c-2.164,10.126-1.275,19.009,7.307,26.457c4.439,3.853,2.897,9.147-2.612,12.859c-1.426,0.961-3.047,1.618-2.57,3.721
			c0.433,1.91,1.95,2.48,3.707,2.8c2.259,0.41,5.556,0.214,6.152,2.509c0.922,3.548,3.195,2.663,5.284,2.665
			c41.832,0.029,83.665,0.023,125.497,0.004c1.474-0.001,3.012,0.338,4.399-0.505l0.383-0.183l-0.103-0.408
			c0.039-1.665,0.112-3.329,0.112-4.993c0.004-95.962,0.005-191.923-0.005-287.885c-0.001-7.495-0.087-14.989-0.133-22.484
			c0.246-0.558,0.468-1.242-0.367-1.34C837.64,73.48,837.145,73.983,837.101,74.706z M644.845,4.037
			c-62.818,0-125.637,0.037-188.455-0.086c-3.985-0.008-5.34,0.775-5.336,5.093c0.124,119.638,0.098,239.276,0.102,358.915
			c0,5.048,0.252,5.259,4.787,2.703c19.865-11.19,35.35-26.766,44.849-47.528c5.235-11.443,12.782-20.538,22.441-28.192
			c7.177-5.688,14.519-11.176,21.569-17.015c9.583-7.938,17.093-17.404,19.155-30.081c1.057-6.494,3.032-12.582,5.74-18.516
			c6.909-15.142,17.523-27.863,26.964-41.347c8.252-11.787,16.507-23.794,18.73-38.234c1.55-10.065,7.379-15.668,15.38-19.915
			c6.752-3.583,13.876-6.461,20.79-9.746c7.186-3.413,13.669-7.896,17.87-14.756c2.604-4.251,6.2-6.226,10.714-7.358
			c5.925-1.487,11.939-0.869,17.913-0.843c3.061,0.013,5.217-0.651,7.189-3.276c3.518-4.681,8.099-8.319,13.049-11.509
			c8.305-5.353,16.662-5.552,25.621-1.484c8.835,4.011,13.932,10.65,15.506,19.981c0.66,3.919,3.784,4.223,6.356,5.369
			c1.928,0.859,3.353-0.081,4.563-1.872c9.851-14.576,22.838-26.428,34.424-39.5c1.387-1.564,3.1-2.535,4.965-3.232
			c8.822-3.298,17.446-5.963,22.824-15.417c2.871-5.047,5.809-9.436,5.779-15.28c-0.034-6.985-0.536-13.984-0.198-20.947
			c0.227-4.657-0.831-6.073-5.837-6.057C769.815,4.109,707.33,4.039,644.845,4.037z M157.501,182.931
			c5.155-1.897,9.208-3.343,13.228-4.876c15.15-5.778,25.013-15.95,27.52-32.533c4.181-27.664,3.656-55.223-3.827-82.17
			c-6.749-24.305-22.126-41.047-47.392-47.284c-14.309-3.532-28.97-4.56-43.599-4.767c-29.821-0.424-59.651-0.134-89.476-0.368
			C9.836,10.9,9.053,12.255,9.056,16.05C9.149,136.86,9.158,257.671,9.04,378.481c-0.004,4.475,1.304,5.581,5.649,5.556
			c30.993-0.178,61.988-0.165,92.982-0.064c14.666,0.048,29.297-0.43,43.886-1.901c8.618-0.87,17.292-1.818,25.26-5.495
			c15.661-7.227,22.957-20.673,26.19-36.732c5.574-27.682,3.717-55.731,3.563-83.674c-0.047-8.629-0.953-17.23-2.362-25.815
			c-3.792-23.103-16.981-37.709-38.985-44.812C163.038,184.837,160.871,184.072,157.501,182.931z M311.107,197.923
			c0-33.162-0.047-66.324,0.033-99.485c0.02-8.159,0.465-16.34,2.711-24.241c1.61-5.667,6.809-9.001,12.998-8.875
			c6.66,0.136,10.73,3.26,12.264,9.563c1.547,6.354,1.851,12.849,1.866,19.352c0.057,24.496,0.129,48.992,0.026,73.488
			c-0.015,3.443,0.92,4.567,4.464,4.548c25.496-0.135,50.992-0.112,76.488-0.013c3.096,0.012,4.434-0.654,4.395-4.107
			c-0.342-29.626,0.693-59.263-3.28-88.797c-4.301-31.971-20.754-54.647-50.152-67.577c-23.313-10.253-47.9-11.627-72.496-6.597
			c-37.92,7.755-61.724,30.972-70.881,68.724c-3.12,12.863-3.261,26.123-3.353,39.238c-0.35,49.656-0.343,99.315-0.284,148.973
			c0.024,20.163,1.434,40.228,4.992,60.14c5.037,28.182,19.983,48.547,46.372,60.126c22.883,10.041,46.893,11.009,71.089,7.463
			c33.438-4.899,68.895-32.007,74.317-74.018c3.401-26.357,3.661-52.799,3.656-79.285c0-3.223-1.725-3.348-4.134-3.344
			c-25.496,0.041-50.993,0.106-76.488-0.052c-3.878-0.024-4.729,1.326-4.706,4.925c0.125,19.163,0.034,38.327-0.02,57.49
			c-0.021,7.673-0.385,15.341-2.134,22.837c-1.708,7.324-6.35,10.73-13.678,10.435c-6.764-0.273-11.046-4.282-12.191-11.566
			c-1.085-6.908-1.892-13.839-1.884-20.858C311.136,263.579,311.115,230.751,311.107,197.923z M478.078,391.369
			c1.988,0,3.977,0,5.964,0c28.327-0.001,56.654-0.002,84.98-0.002c24.161,0,48.322-0.031,72.483,0.044
			c2.921,0.009,4.874,0.011,5.253-3.898c0.434-4.471,3.874-6.79,8.224-7.473c4.749-0.745,7.219-4.31,5.844-9.118
			c-0.726-2.536-2.104-4.88-3.099-7.347c-0.745-1.85-1.847-4.101-0.295-5.674c4.797-4.859,4.847-11.069,5.584-17.165
			c0.506-4.178,1.364-8.334,5.026-11.043c4.642-3.434,7.126-8.247,9.078-13.452c2.719-7.251,3.525-14.838,4.2-22.491
			c1.021-11.577,1.332-23.31,6.72-34.065c1.979-3.95,5.013-7.135,8.542-11.576c-6.098,0.586-10.856,1.044-15.615,1.5
			c-6.871,0.657-11.981-1.752-14.95-8.27c-2.415-5.302-5.146-10.424-4.895-16.563c0.117-2.849-0.543-5.783-3.595-7.149
			c-2.779-1.245-4.262,1.324-5.956,2.583c-12.245,9.098-22.55,20.198-32.311,31.835c-13.053,15.561-24.877,32.322-40.435,45.519
			c-12.402,10.521-24.579,21.103-35.801,32.946c-11.864,12.521-26.928,21.128-41.576,30.08c-2.217,1.354-4.86,2.292-5.655,5.283
			C492.993,376.417,486.981,384.674,478.078,391.369z M746.193,459.187c-0.346,0.139-0.692,0.276-1.038,0.415
			c-6.736-10.807-13.955-21.352-20.025-32.521c-3.522-6.481-7.759-9.332-14.882-8.026c-0.322,0.06-0.67,0.046-0.997,0.001
			c-2.763-0.375-3.301,1.061-3.291,3.514c0.074,18.646,0.035,37.293,0.061,55.939c0.001,1.111-0.45,3.03,0.666,3.156
			c3.601,0.409,7.359,0.81,10.872,0.181c2.91-0.521,1.346-3.657,1.37-5.546c0.15-11.545,0.075-23.092,0.075-36.063
			c1.591,2.247,2.372,3.241,3.038,4.308c6.26,10.016,12.927,19.811,18.58,30.159c3.244,5.938,7.106,8.156,13.717,7.565
			c3.709-0.331,5.084-0.873,5.024-4.955c-0.245-16.812-0.099-33.629-0.097-50.444c0.001-7.825-0.011-7.565-7.984-7.914
			c-4.273-0.187-5.277,1.216-5.184,5.291C746.367,435.888,746.193,447.539,746.193,459.187z M285.051,449.994
			c0,9.485,0.088,18.972-0.055,28.454c-0.042,2.786,0.75,3.782,3.641,3.706c8.147-0.215,16.316,0.139,24.45-0.261
			c15.445-0.759,23.965-8.468,27.02-23.663c0.866-4.309,0.908-8.641,0.506-12.918c-1.552-16.547-12.259-26.203-28.8-26.246
			c-7.488-0.02-14.983,0.19-22.461-0.084c-3.637-0.134-4.458,1.173-4.376,4.556C285.189,432.353,285.048,441.175,285.051,449.994z
			 M827.877,475.985c0.313,1.223,0.654,2.013,0.701,2.819c0.297,5.143,4.22,2.909,6.75,3.256c3.368,0.461,2.609-2.183,2.618-4.021
			c0.042-8.832-0.032-17.665,0.051-26.497c0.022-2.335-0.291-3.72-3.185-3.645c-6.828,0.176-13.664,0.049-20.496,0.059
			c-1.308,0.002-2.516-0.166-3.011,1.724c-1.573,6.008,0.182,8.492,6.285,8.495c1.167,0,2.348,0.12,3.497-0.021
			c4.548-0.555,4.623,1.769,3.327,5.034c-2.314,5.831-6.935,8.333-12.883,8.59c-6.731,0.291-12.264-2.27-15.188-8.472
			c-4.051-8.589-3.949-17.443,0.3-25.991c2.785-5.604,7.77-8.191,13.884-8.136c5.81,0.054,10.146,2.733,12.533,8.282
			c0.907,2.109,12.35,3.715,13.503,1.898c0.424-0.667,0.111-1.926-0.109-2.856c-1.536-6.468-5.072-11.508-10.843-14.912
			c-13.122-7.742-31.293-4.096-39.844,7.997c-9.842,13.917-7.699,36.585,4.416,46.723
			C801.325,485.634,813.498,485.627,827.877,475.985z M478.687,445.047c0-6.706,0.001-11.834,0-16.961
			c-0.002-9.151-0.007-8.925-9.262-9.131c-3.984-0.088-4.605,1.368-4.573,4.9c0.165,17.813,0.211,35.631-0.029,53.442
			c-0.055,4.057,1.186,4.988,5.017,4.889c8.837-0.23,8.983-0.041,8.795-8.969c-0.137-6.53-0.642-12.863,5.809-17.329
			c2.062-1.428,2.558-1.659,3.942,0.476c4.981,7.676,10.16,15.223,15.307,22.79c0.799,1.175,1.21,2.926,3.097,2.893
			c5.176-0.089,10.39,0.473,15.986-0.4c-8.392-11.903-16.343-23.378-24.549-34.668c-1.792-2.466-1.546-3.792,0.524-5.783
			c5.396-5.189,10.652-10.533,15.786-15.983c1.691-1.796,4.291-3.034,4.815-6.154c-3.48,0-6.674,0.292-9.791-0.068
			c-4.592-0.532-7.732,1.16-10.746,4.604C492.713,430.565,486.156,437.142,478.687,445.047z M15.116,461.05
			c-8.841,0.002-9.704,1.341-6.519,8.827c1.974,4.64,5.255,8.154,9.805,10.209c10.245,4.626,20.692,4.833,30.918,0.12
			c8.854-4.081,12.7-13.289,9.765-22.563c-2.137-6.75-7.605-9.785-13.889-11.666c-6.205-1.857-12.556-3.282-18.642-5.457
			c-4.582-1.638-5.201-6.849-1.621-9.961c5.266-4.579,16.568-1.947,18.979,4.614c0.758,2.063,1.532,3.04,3.789,2.867
			c2.316-0.177,4.667-0.168,6.985-0.003c2.689,0.191,3.64-0.838,3.112-3.473c-0.946-4.722-2.927-8.838-6.808-11.839
			c-8.781-6.79-26.09-6.864-34.868-0.187c-10.396,7.908-9.035,22.938,2.593,28.736c4.509,2.248,9.424,3.218,14.222,4.553
			c3.516,0.978,7.181,1.554,10.301,3.609c3.544,2.335,4.458,6.445,1.791,9.428c-3.426,3.831-8.164,4.218-12.89,3.691
			c-4.622-0.515-9.578-1.955-10.61-6.887C20.5,460.756,17.908,460.624,15.116,461.05z M148.892,450.606
			c0,8.99,0.213,17.988-0.099,26.967c-0.136,3.905,1.188,4.669,4.792,4.603c11.983-0.218,23.973,0.011,35.958-0.107
			c7.994-0.08,6.917,1.842,7.234-7.539c0.116-3.426-1.127-4.273-4.307-4.174c-6.32,0.2-12.651,0.06-18.977,0.06
			c-11.209,0-11.103,0.001-10.93-11.473c0.045-2.989,0.812-4.079,3.928-3.975c6.485,0.218,12.983,0.063,19.476,0.063
			c7.814,0,7.711,0.007,7.32-7.916c-0.117-2.36-0.808-3.185-3.19-3.137c-6.324,0.127-12.652,0.042-18.979,0.04
			c-8.629-0.003-8.468-0.005-8.565-8.794c-0.038-3.434,0.883-4.633,4.443-4.529c8.317,0.242,16.648-0.029,24.969,0.137
			c2.957,0.059,4.418-0.698,4.014-3.878c-0.167-1.312-0.161-2.677-0.001-3.989c0.372-3.057-0.832-4.005-3.915-3.969
			c-12.984,0.153-25.972,0.153-38.956,0c-3.173-0.037-4.371,0.745-4.288,4.143C149.045,432.29,148.897,441.45,148.892,450.606z
			 M217.036,450.763c0,9.154,0.128,18.313-0.071,27.463c-0.067,3.083,0.83,3.976,3.912,3.938
			c13.314-0.156,26.632-0.143,39.946-0.007c2.917,0.03,4.457-0.563,4.007-3.806c-0.182-1.307-0.17-2.677-0.006-3.987
			c0.38-3.052-0.828-4.094-3.901-4.001c-6.319,0.191-12.648,0.053-18.974,0.053c-11.293-0.002-11.173-0.001-11.159-11.205
			c0.004-3.182,0.751-4.394,4.133-4.255c6.314,0.26,12.647,0.076,18.972,0.075c7.574-0.001,7.412,0.001,7.302-7.496
			c-0.043-2.974-1.153-3.63-3.833-3.56c-5.822,0.151-11.65,0.044-17.476,0.044c-9.249-0.001-9.077-0.001-9.112-9.214
			c-0.013-3.422,1.197-4.178,4.325-4.093c7.152,0.193,14.315,0.151,21.47,0.037c8.255-0.131,7.184,1.804,7.468-7.856
			c0.093-3.157-1.031-3.918-4.011-3.887c-12.981,0.137-25.967,0.167-38.948-0.022c-3.412-0.05-4.174,1.148-4.109,4.315
			C217.162,432.45,217.04,441.607,217.036,450.763z M400.727,461.047c-8.471-0.006-9.433,1.443-6.485,8.581
			c1.851,4.482,4.922,8.025,9.235,10.109c10.668,5.152,21.592,5.264,32.25,0.148c6.93-3.325,10.215-9.474,10.105-17.063
			c-0.105-7.413-4.181-12.455-10.851-15.358c-2.422-1.054-5.036-1.674-7.571-2.46c-5.073-1.574-10.428-2.22-15.289-4.477
			c-4.02-1.867-4.908-6.231-2.031-9.4c4.334-4.774,17.081-3.21,19.019,2.859c1.266,3.964,3.25,4.271,6.424,4.036
			c1.655-0.122,3.337-0.137,4.989,0.007c2.688,0.232,3.591-0.775,3.063-3.465c-0.932-4.755-2.995-8.815-6.835-11.826
			c-8.71-6.829-25.983-6.898-34.865-0.194c-10.357,7.817-8.967,22.954,2.625,28.725c4.663,2.321,9.734,3.326,14.704,4.675
			c3.359,0.911,6.853,1.5,9.812,3.509c3.72,2.526,4.32,6.653,1.485,9.838c-5.483,6.16-20.786,4.104-23.191-3.651
			C405.89,461.024,403.604,460.558,400.727,461.047z M593.692,482.095c0.438-2.195-0.612-3.621-1.175-5.134
			c-6.136-16.508-12.364-32.98-18.478-49.497c-3.101-8.377-3.028-8.148-12.017-8.521c-4.254-0.177-6.032,1.354-7.438,5.208
			c-6.146,16.854-12.642,33.58-18.97,50.368c-2.848,7.558-2.788,7.265,5.497,7.704c4.474,0.236,6.354-1.274,7.709-5.426
			c2.928-8.969,3.173-8.889,12.456-8.888c0.666,0,1.331,0,1.997,0c11.547,0,11.563-0.006,15.596,10.87
			c0.641,1.728,0.933,3.478,3.496,3.36C586.152,481.966,589.952,482.095,593.692,482.095z M96.654,419.107c0-0.016,0-0.03,0-0.046
			c-4.494,0-9,0.209-13.477-0.068c-3.401-0.211-4.172,1.091-4.145,4.276c0.14,16.31,0.065,32.621,0.065,48.932
			c0,10.713-0.006,10.622,10.821,9.967c2.456-0.148,3.096-1.002,3.042-3.276c-0.12-5.157,0.101-10.323-0.091-15.476
			c-0.11-2.97,0.772-4.16,3.906-4.058c4.814,0.157,9.668,0.185,14.458-0.257c11.478-1.059,18.324-8.976,18.036-20.436
			c-0.285-11.351-7.702-19.002-19.137-19.524C105.648,418.937,101.147,419.107,96.654,419.107z M632.053,456.52
			c0-4.494,0-8.989,0-13.483c0-12.257,0.001-12.211,12.033-12.28c7.605-0.043,6.677,1.16,6.772-7.003
			c0.006-0.499-0.047-1.004,0.007-1.497c0.251-2.332-0.699-3.238-3.109-3.227c-15.148,0.071-30.298,0.031-45.446,0.034
			c-1.501,0-2.805-0.116-3.217,2.079c-1.473,7.848-0.141,9.631,7.691,9.631c1.998,0,4.024,0.216,5.987-0.044
			c4.227-0.561,5.777,0.717,5.64,5.34c-0.36,12.143-0.121,24.302-0.121,36.454c0,9.961-0.002,9.85,10.158,9.65
			c2.815-0.055,3.733-0.836,3.664-3.682C631.935,471.172,632.053,463.845,632.053,456.52z M668.955,450.334
			c0,7.148,0,14.298,0,21.446c0,10.537,0,10.381,10.786,10.412c3.387,0.01,4.146-1.07,4.118-4.246
			c-0.143-16.125-0.066-32.253-0.066-48.38c0-11.331,0.003-11.212-11.366-10.937c-2.954,0.071-3.565,1.081-3.525,3.774
			C669.041,431.712,668.955,441.023,668.955,450.334z"/>
		<path fill-rule="evenodd" fill="#0875A7" d="M644.845,4.038C707.33,4.039,769.815,4.109,832.3,3.907
			c5.006-0.016,6.063,1.399,5.837,6.057c-0.338,6.962,0.164,13.962,0.198,20.947c0.029,5.844-2.908,10.233-5.779,15.28
			c-5.378,9.454-14.002,12.119-22.824,15.417c-1.865,0.697-3.578,1.668-4.965,3.232c-11.586,13.072-24.573,24.924-34.424,39.5
			c-1.21,1.791-2.635,2.73-4.563,1.872c-2.572-1.146-5.696-1.45-6.356-5.369c-1.574-9.332-6.671-15.97-15.506-19.981
			c-8.959-4.067-17.316-3.868-25.621,1.484c-4.95,3.19-9.531,6.828-13.049,11.509c-1.973,2.625-4.129,3.29-7.189,3.276
			c-5.974-0.025-11.988-0.644-17.913,0.843c-4.514,1.133-8.11,3.107-10.714,7.358c-4.201,6.86-10.685,11.343-17.87,14.756
			c-6.914,3.285-14.038,6.163-20.79,9.746c-8.001,4.246-13.83,9.85-15.38,19.915c-2.224,14.44-10.479,26.447-18.73,38.234
			c-9.44,13.484-20.055,26.205-26.964,41.347c-2.708,5.934-4.684,12.022-5.74,18.516c-2.063,12.677-9.572,22.144-19.155,30.081
			c-7.051,5.839-14.393,11.326-21.569,17.015c-9.659,7.654-17.206,16.749-22.441,28.192c-9.499,20.763-24.983,36.338-44.849,47.528
			c-4.535,2.556-4.787,2.345-4.787-2.703c-0.004-119.639,0.022-239.276-0.102-358.915c-0.004-4.318,1.351-5.101,5.336-5.093
			C519.208,4.073,582.026,4.037,644.845,4.038z"/>
		<path fill-rule="evenodd" fill="#37B2DE" d="M157.501,182.931c3.369,1.142,5.536,1.906,7.722,2.612
			c22.004,7.103,35.194,21.709,38.985,44.812c1.409,8.585,2.314,17.187,2.362,25.815c0.154,27.942,2.011,55.992-3.563,83.674
			c-3.234,16.06-10.529,29.506-26.19,36.732c-7.968,3.677-16.642,4.625-25.26,5.495c-14.588,1.472-29.22,1.949-43.886,1.901
			c-30.994-0.101-61.989-0.113-92.982,0.064c-4.345,0.025-5.654-1.081-5.649-5.556C9.158,257.671,9.149,136.86,9.056,16.05
			c-0.003-3.794,0.78-5.15,4.899-5.117c29.825,0.233,59.655-0.056,89.476,0.368c14.629,0.208,29.29,1.235,43.599,4.767
			c25.266,6.237,40.644,22.979,47.392,47.284c7.482,26.948,8.008,54.507,3.827,82.17c-2.506,16.583-12.369,26.754-27.52,32.533
			C166.709,179.588,162.656,181.034,157.501,182.931z M94.292,267.994c0,15.983-0.009,31.966,0.012,47.949
			c0.002,1.916-0.501,3.897,2.705,4.196c14.199,1.326,22.64-5.556,23.876-19.771c0.086-0.995,0.126-1.994,0.178-2.991
			c1.029-19.953,0.901-39.903,0.011-59.86c-0.723-16.211-4.733-20.389-21.012-21.418c-0.333-0.021-0.672-0.002-0.996-0.064
			c-3.688-0.711-4.909,0.657-4.86,4.511C94.409,236.36,94.291,252.178,94.292,267.994z M94.289,116.032
			c0,10.317-0.004,20.634,0.001,30.951c0.006,10.481,0.01,10.481,10.344,10.186c9.713-0.278,13.918-3.494,15.159-13.007
			c2.089-16.017,2.326-32.131,1.155-48.255c-1.12-15.422-7.096-20.927-22.466-21.05c-3.31-0.026-4.297,0.981-4.257,4.235
			C94.377,91.403,94.286,103.718,94.289,116.032z"/>
		<path fill-rule="evenodd" fill="#37B2DE" d="M311.111,197.923c0.003,32.828,0.024,65.656-0.013,98.484
			c-0.008,7.02,0.798,13.95,1.884,20.858c1.145,7.284,5.427,11.293,12.191,11.566c7.328,0.296,11.969-3.11,13.678-10.435
			c1.749-7.496,2.112-15.164,2.134-22.837c0.054-19.163,0.145-38.327,0.02-57.49c-0.023-3.599,0.827-4.949,4.706-4.925
			c25.495,0.158,50.992,0.092,76.488,0.052c2.409-0.004,4.134,0.121,4.134,3.344c0.005,26.486-0.255,52.928-3.656,79.285
			c-5.422,42.011-40.88,69.118-74.317,74.018c-24.196,3.546-48.206,2.578-71.089-7.463c-26.389-11.579-41.335-31.944-46.372-60.126
			c-3.558-19.912-4.967-39.977-4.992-60.14c-0.059-49.658-0.066-99.317,0.284-148.973c0.092-13.115,0.232-26.375,3.353-39.238
			c9.158-37.751,32.961-60.968,70.881-68.724c24.596-5.03,49.183-3.656,72.496,6.597c29.398,12.93,45.851,35.605,50.152,67.577
			c3.974,29.534,2.938,59.171,3.28,88.797c0.039,3.453-1.299,4.119-4.395,4.107c-25.496-0.099-50.993-0.122-76.488,0.013
			c-3.544,0.019-4.479-1.105-4.464-4.548c0.103-24.496,0.031-48.992-0.026-73.488c-0.015-6.503-0.318-12.998-1.866-19.352
			c-1.534-6.303-5.604-9.427-12.264-9.563c-6.188-0.126-11.387,3.208-12.998,8.875c-2.246,7.901-2.691,16.083-2.711,24.241
			C311.061,131.599,311.107,164.761,311.111,197.923z"/>
		<path fill-rule="evenodd" fill="#0875A7" d="M838.353,390.844c-1.388,0.843-2.926,0.504-4.399,0.505
			c-41.832,0.02-83.665,0.025-125.497-0.004c-2.089-0.002-4.362,0.883-5.284-2.665c-0.597-2.295-3.894-2.099-6.152-2.509
			c-1.757-0.319-3.274-0.89-3.707-2.8c-0.477-2.103,1.145-2.76,2.57-3.721c5.51-3.712,7.052-9.007,2.612-12.859
			c-8.582-7.448-9.471-16.331-7.307-26.457c0.63-2.946,1.297-5.732,2.88-8.397c6.558-11.043,14.211-21.346,21.363-31.984
			c9.883-14.7,17.437-30.253,19.352-48.147c0.46-4.302,2.059-8.396,3.079-12.589c1.653-6.794,6.23-8.932,12.437-9.079
			c5.83-0.138,11.675,0.044,17.492-0.283c11.131-0.626,15.759-4.899,17.725-15.85c0.471-2.621,1.043-5.224,1.48-7.85
			c1.296-7.788-1.565-10.582-9.494-9.032c-10.207,1.996-20.054,5.064-28.542,11.335c-2.683,1.981-3.806,1.46-4.965-1.469
			c-1.897-4.793-4.069-9.483-6.272-14.147c-0.823-1.742-1.098-2.938,0.868-4.125c6.108-3.688,10.339-9.343,14.964-14.584
			c5.205-5.898,10.715-10.991,18.675-13.568c5.3-1.715,8.581-7.175,12.054-11.646c8.556-11.018,13.753-23.929,20.145-36.16
			c2.959-5.66,6.372-10.76,11.373-14.945c8.072-6.754,14.775-14.873,21.298-23.105c0.502,0.063,1.005,0.123,1.509,0.182
			c0.046,7.495,0.132,14.989,0.133,22.484c0.01,95.961,0.009,191.923,0.005,287.885c0,1.664-0.073,3.328-0.112,4.989
			c0-0.005-0.327,0.202-0.327,0.202L838.353,390.844z"/>
		<path fill-rule="evenodd" fill="#0875A7" d="M478.078,391.369c8.903-6.695,14.915-14.952,17.717-25.497
			c0.795-2.991,3.438-3.929,5.655-5.283c14.648-8.952,29.712-17.559,41.576-30.08c11.222-11.844,23.398-22.426,35.801-32.946
			c15.558-13.196,27.382-29.958,40.435-45.519c9.761-11.637,20.065-22.737,32.311-31.835c1.694-1.258,3.177-3.828,5.956-2.583
			c3.052,1.367,3.712,4.3,3.595,7.149c-0.252,6.139,2.479,11.261,4.895,16.563c2.969,6.518,8.079,8.927,14.95,8.27
			c4.759-0.456,9.518-0.914,15.615-1.5c-3.529,4.441-6.563,7.626-8.542,11.576c-5.388,10.756-5.699,22.488-6.72,34.065
			c-0.675,7.653-1.481,15.24-4.2,22.491c-1.952,5.205-4.437,10.019-9.078,13.452c-3.662,2.709-4.521,6.865-5.026,11.043
			c-0.737,6.096-0.787,12.306-5.584,17.165c-1.552,1.573-0.45,3.824,0.295,5.674c0.994,2.467,2.373,4.811,3.099,7.347
			c1.375,4.809-1.095,8.373-5.844,9.118c-4.35,0.683-7.79,3.002-8.224,7.473c-0.379,3.909-2.332,3.907-5.253,3.898
			c-24.161-0.075-48.322-0.044-72.483-0.044c-28.326,0-56.653,0.001-84.98,0.002C482.055,391.369,480.066,391.369,478.078,391.369z"
			/>
		<path fill-rule="evenodd" fill="#0875A7" d="M746.193,459.187c0-11.647,0.174-23.299-0.095-34.939
			c-0.094-4.075,0.91-5.478,5.184-5.291c7.974,0.349,7.985,0.089,7.984,7.914c-0.002,16.815-0.148,33.633,0.097,50.444
			c0.06,4.082-1.315,4.624-5.024,4.955c-6.61,0.591-10.473-1.628-13.717-7.565c-5.653-10.349-12.32-20.144-18.58-30.159
			c-0.666-1.066-1.447-2.061-3.038-4.308c0,12.971,0.075,24.518-0.075,36.063c-0.024,1.889,1.54,5.024-1.37,5.546
			c-3.513,0.629-7.271,0.229-10.872-0.181c-1.116-0.126-0.665-2.045-0.666-3.156c-0.025-18.646,0.014-37.293-0.061-55.939
			c-0.01-2.453,0.528-3.889,3.291-3.514c0.327,0.045,0.675,0.059,0.997-0.001c7.123-1.306,11.359,1.545,14.882,8.026
			c6.07,11.169,13.289,21.714,20.025,32.521C745.501,459.463,745.848,459.325,746.193,459.187z"/>
		<path fill-rule="evenodd" fill="#0875A7" d="M285.05,449.994c-0.002-8.819,0.14-17.642-0.074-26.456
			c-0.082-3.383,0.739-4.689,4.376-4.556c7.478,0.274,14.973,0.064,22.461,0.084c16.541,0.043,27.248,9.699,28.8,26.246
			c0.401,4.277,0.359,8.609-0.506,12.918c-3.055,15.195-11.574,22.904-27.02,23.663c-8.134,0.399-16.303,0.046-24.45,0.261
			c-2.891,0.076-3.683-0.92-3.641-3.706C285.14,468.966,285.051,459.479,285.05,449.994z M298.852,450.451c0,2.825,0,5.65,0,8.477
			c0,12.147-0.003,12.074,12.234,11.461c5.961-0.299,10.613-2.604,13.446-7.955c8.458-15.979-0.797-31.639-18.671-31.662
			c-1.33-0.002-2.669,0.106-3.987-0.016c-2.485-0.23-3.097,0.984-3.054,3.241C298.928,439.479,298.855,444.966,298.852,450.451z"/>
		<path fill-rule="evenodd" fill="#0875A7" d="M827.877,475.985c-14.379,9.642-26.552,9.648-37.693,0.326
			c-12.115-10.138-14.258-32.806-4.416-46.723c8.551-12.093,26.722-15.739,39.844-7.997c5.771,3.404,9.307,8.444,10.843,14.912
			c0.221,0.931,0.533,2.189,0.109,2.856c-1.153,1.816-12.596,0.211-13.503-1.898c-2.387-5.549-6.724-8.229-12.533-8.282
			c-6.114-0.056-11.099,2.532-13.884,8.136c-4.249,8.548-4.351,17.402-0.3,25.991c2.925,6.202,8.457,8.763,15.188,8.472
			c5.948-0.257,10.568-2.759,12.883-8.59c1.296-3.266,1.221-5.589-3.327-5.034c-1.149,0.141-2.33,0.021-3.497,0.021
			c-6.104-0.003-7.858-2.487-6.285-8.495c0.495-1.89,1.703-1.722,3.011-1.724c6.832-0.01,13.668,0.117,20.496-0.059
			c2.894-0.075,3.207,1.31,3.185,3.645c-0.083,8.832-0.009,17.665-0.051,26.497c-0.009,1.839,0.75,4.482-2.618,4.021
			c-2.53-0.347-6.453,1.887-6.75-3.256C828.531,477.998,828.19,477.208,827.877,475.985z"/>
		<path fill-rule="evenodd" fill="#0875A7" d="M478.687,445.047c7.47-7.905,14.026-14.481,20.128-21.454
			c3.014-3.443,6.154-5.136,10.746-4.604c3.117,0.36,6.311,0.068,9.791,0.068c-0.524,3.12-3.124,4.358-4.815,6.154
			c-5.134,5.45-10.39,10.794-15.786,15.983c-2.07,1.991-2.316,3.317-0.524,5.783c8.206,11.29,16.157,22.765,24.549,34.668
			c-5.597,0.873-10.811,0.312-15.986,0.4c-1.887,0.033-2.298-1.718-3.097-2.893c-5.146-7.567-10.325-15.114-15.307-22.79
			c-1.385-2.135-1.881-1.903-3.942-0.476c-6.45,4.466-5.945,10.799-5.809,17.329c0.188,8.928,0.042,8.738-8.795,8.969
			c-3.831,0.1-5.071-0.832-5.017-4.889c0.24-17.812,0.194-35.629,0.029-53.442c-0.032-3.532,0.589-4.988,4.573-4.9
			c9.255,0.206,9.26-0.021,9.262,9.131C478.688,433.213,478.687,438.341,478.687,445.047z"/>
		<path fill-rule="evenodd" fill="#0875A7" d="M15.116,461.05c2.792-0.426,5.384-0.294,6.413,4.621
			c1.032,4.932,5.988,6.372,10.61,6.887c4.726,0.526,9.463,0.14,12.89-3.691c2.667-2.982,1.753-7.093-1.791-9.428
			c-3.12-2.056-6.785-2.632-10.301-3.609c-4.798-1.335-9.713-2.305-14.222-4.553c-11.628-5.798-12.989-20.828-2.593-28.736
			c8.778-6.678,26.087-6.604,34.868,0.187c3.88,3.001,5.861,7.117,6.808,11.839c0.528,2.635-0.423,3.664-3.112,3.473
			c-2.318-0.165-4.669-0.174-6.985,0.003c-2.257,0.173-3.03-0.804-3.789-2.867c-2.411-6.562-13.713-9.193-18.979-4.614
			c-3.58,3.112-2.96,8.323,1.621,9.961c6.086,2.175,12.438,3.6,18.642,5.457c6.284,1.881,11.752,4.916,13.889,11.666
			c2.935,9.273-0.912,18.481-9.765,22.563c-10.226,4.713-20.673,4.506-30.918-0.12c-4.55-2.055-7.831-5.569-9.805-10.209
			C5.412,462.391,6.275,461.052,15.116,461.05z"/>
		<path fill-rule="evenodd" fill="#0875A7" d="M148.895,450.606c0.002-9.156,0.151-18.316-0.074-27.468
			c-0.083-3.397,1.114-4.18,4.288-4.143c12.984,0.153,25.972,0.153,38.956,0c3.083-0.036,4.287,0.912,3.915,3.969
			c-0.16,1.313-0.166,2.678,0.001,3.989c0.404,3.18-1.057,3.937-4.014,3.878c-8.321-0.166-16.652,0.105-24.969-0.137
			c-3.56-0.104-4.48,1.096-4.443,4.529c0.097,8.789-0.064,8.791,8.565,8.794c6.327,0.002,12.654,0.087,18.979-0.04
			c2.382-0.048,3.074,0.776,3.19,3.137c0.391,7.923,0.494,7.916-7.32,7.916c-6.493-0.001-12.991,0.154-19.476-0.063
			c-3.116-0.104-3.883,0.985-3.928,3.975c-0.173,11.474-0.279,11.473,10.93,11.473c6.326,0,12.657,0.141,18.977-0.06
			c3.18-0.1,4.423,0.748,4.307,4.174c-0.317,9.381,0.76,7.459-7.234,7.539c-11.986,0.118-23.976-0.11-35.958,0.107
			c-3.605,0.066-4.929-0.697-4.792-4.603C149.105,468.595,148.892,459.597,148.895,450.606z"/>
		<path fill-rule="evenodd" fill="#0875A7" d="M217.038,450.763c0.002-9.155,0.124-18.313-0.064-27.463
			c-0.065-3.167,0.697-4.365,4.109-4.315c12.98,0.189,25.966,0.159,38.948,0.022c2.98-0.031,4.104,0.729,4.011,3.887
			c-0.284,9.66,0.787,7.726-7.468,7.856c-7.155,0.114-14.318,0.156-21.47-0.037c-3.128-0.085-4.338,0.671-4.325,4.093
			c0.035,9.213-0.137,9.213,9.112,9.214c5.826,0,11.654,0.107,17.476-0.044c2.679-0.07,3.79,0.586,3.833,3.56
			c0.109,7.497,0.271,7.495-7.302,7.496c-6.325,0.001-12.658,0.185-18.972-0.075c-3.382-0.139-4.129,1.073-4.133,4.255
			c-0.015,11.204-0.134,11.203,11.159,11.205c6.325,0,12.654,0.139,18.974-0.053c3.073-0.093,4.281,0.949,3.901,4.001
			c-0.164,1.311-0.175,2.681,0.006,3.987c0.45,3.242-1.09,3.836-4.007,3.806c-13.314-0.136-26.632-0.149-39.946,0.007
			c-3.082,0.037-3.979-0.855-3.912-3.938C217.164,469.075,217.036,459.917,217.038,450.763z"/>
		<path fill-rule="evenodd" fill="#0875A7" d="M400.727,461.047c2.878-0.489,5.164-0.022,6.595,4.592
			c2.405,7.755,17.708,9.812,23.191,3.651c2.835-3.185,2.234-7.312-1.485-9.838c-2.959-2.009-6.453-2.598-9.812-3.509
			c-4.969-1.349-10.041-2.354-14.704-4.675c-11.593-5.771-12.983-20.907-2.625-28.725c8.882-6.704,26.155-6.635,34.865,0.194
			c3.84,3.011,5.903,7.071,6.835,11.826c0.527,2.689-0.375,3.697-3.063,3.465c-1.652-0.144-3.334-0.129-4.989-0.007
			c-3.174,0.235-5.158-0.072-6.424-4.036c-1.938-6.069-14.685-7.634-19.019-2.859c-2.877,3.169-1.989,7.533,2.031,9.4
			c4.861,2.257,10.216,2.902,15.289,4.477c2.535,0.786,5.149,1.406,7.571,2.46c6.67,2.903,10.745,7.945,10.851,15.358
			c0.109,7.59-3.176,13.738-10.105,17.063c-10.658,5.115-21.582,5.004-32.25-0.148c-4.313-2.084-7.385-5.627-9.235-10.109
			C391.294,462.49,392.255,461.041,400.727,461.047z"/>
		<path fill-rule="evenodd" fill="#0875A7" d="M593.692,482.095c-3.74,0-7.54-0.129-11.326,0.045
			c-2.563,0.117-2.855-1.633-3.496-3.36c-4.033-10.876-4.049-10.87-15.596-10.87c-0.666,0-1.331,0-1.997,0
			c-9.283-0.001-9.528-0.081-12.456,8.888c-1.355,4.151-3.235,5.662-7.709,5.426c-8.285-0.439-8.345-0.146-5.497-7.704
			c6.328-16.788,12.823-33.515,18.97-50.368c1.406-3.854,3.185-5.385,7.438-5.208c8.988,0.373,8.916,0.145,12.017,8.521
			c6.113,16.517,12.342,32.989,18.478,49.497C593.08,478.474,594.13,479.899,593.692,482.095z M563.591,434.738
			c-1.672,4.608-2.994,8.172-4.259,11.756c-4.245,12.025-3.445,12.913,9.46,11.213c2.146-0.282,2.535-1.068,1.899-2.869
			C568.438,448.464,566.188,442.089,563.591,434.738z"/>
		<path fill-rule="evenodd" fill="#0875A7" d="M96.654,419.107c4.493,0,8.995-0.171,13.479,0.034
			c11.436,0.522,18.852,8.174,19.137,19.524c0.288,11.46-6.558,19.377-18.036,20.436c-4.789,0.441-9.644,0.414-14.458,0.257
			c-3.134-0.103-4.017,1.088-3.906,4.058c0.192,5.152-0.028,10.318,0.091,15.476c0.053,2.274-0.587,3.128-3.042,3.276
			c-10.827,0.655-10.822,0.746-10.821-9.967c0-16.311,0.075-32.622-0.065-48.932c-0.027-3.186,0.743-4.487,4.145-4.276
			c4.477,0.277,8.983,0.068,13.477,0.068C96.654,419.077,96.654,419.092,96.654,419.107z M92.939,439.158
			c0,2.326,0.02,4.653-0.007,6.98c-0.018,1.502,0.327,2.661,2.147,2.619c4.804-0.11,9.656,0.521,14.388-0.779
			c4.241-1.165,6.289-4.066,6.407-8.401c0.186-6.749-3.711-9.671-13.125-9.85C92.924,429.541,92.924,429.541,92.939,439.158z"/>
		<path fill-rule="evenodd" fill="#0875A7" d="M632.053,456.52c0,7.325-0.118,14.652,0.06,21.973
			c0.069,2.846-0.849,3.627-3.664,3.682c-10.16,0.199-10.158,0.311-10.158-9.65c0-12.152-0.239-24.312,0.121-36.454
			c0.138-4.623-1.413-5.9-5.64-5.34c-1.963,0.26-3.989,0.044-5.987,0.044c-7.832,0-9.164-1.783-7.691-9.631
			c0.412-2.195,1.716-2.079,3.217-2.079c15.148-0.003,30.298,0.037,45.446-0.034c2.41-0.012,3.36,0.895,3.109,3.227
			c-0.054,0.493-0.001,0.998-0.007,1.497c-0.096,8.163,0.833,6.96-6.772,7.003c-12.032,0.069-12.033,0.023-12.033,12.28
			C632.053,447.53,632.053,452.025,632.053,456.52z"/>
		<path fill-rule="evenodd" fill="#0875A7" d="M668.955,450.334c0-9.311,0.086-18.622-0.054-27.93
			c-0.04-2.693,0.571-3.703,3.525-3.774c11.369-0.275,11.366-0.395,11.366,10.937c0,16.127-0.076,32.255,0.066,48.38
			c0.027,3.176-0.731,4.256-4.118,4.246c-10.786-0.031-10.786,0.125-10.786-10.412C668.955,464.632,668.955,457.482,668.955,450.334
			z"/>
		<path fill-rule="evenodd" fill="#37B2DE" d="M838.607,74.891c-0.504-0.06-1.007-0.119-1.509-0.182
			c0.046-0.726,0.541-1.229,1.142-1.158C839.075,73.649,838.854,74.333,838.607,74.891z"/>
		<polygon fill-rule="evenodd" fill="#37B2DE" points="838.353,390.844 838.306,390.451 838.633,390.249 838.735,390.661 		"/>
		<path fill-rule="evenodd" fill="#FBFDFD" d="M94.292,267.994c-0.001-15.816,0.118-31.634-0.086-47.448
			c-0.049-3.854,1.171-5.222,4.86-4.511c0.324,0.063,0.664,0.043,0.996,0.064c16.278,1.029,20.289,5.207,21.012,21.418
			c0.89,19.957,1.019,39.907-0.011,59.86c-0.051,0.997-0.091,1.996-0.178,2.991c-1.236,14.216-9.677,21.098-23.876,19.771
			c-3.206-0.299-2.702-2.28-2.705-4.196C94.283,299.96,94.292,283.978,94.292,267.994z"/>
		<path fill-rule="evenodd" fill="#FBFDFD" d="M94.288,116.032c-0.001-12.314,0.09-24.629-0.063-36.941
			c-0.04-3.253,0.947-4.261,4.257-4.235c15.37,0.124,21.346,5.628,22.466,21.05c1.171,16.124,0.934,32.238-1.155,48.255
			c-1.241,9.514-5.446,12.729-15.159,13.007c-10.333,0.296-10.338,0.296-10.344-10.186
			C94.285,136.666,94.289,126.349,94.288,116.032z"/>
		<path fill-rule="evenodd" fill="#FBFDFD" d="M298.854,450.451c0.002-5.485,0.074-10.972-0.033-16.454
			c-0.043-2.257,0.569-3.472,3.054-3.241c1.318,0.122,2.657,0.014,3.987,0.016c17.874,0.023,27.128,15.683,18.671,31.662
			c-2.833,5.352-7.485,7.656-13.446,7.955c-12.238,0.613-12.234,0.687-12.234-11.461
			C298.852,456.102,298.852,453.276,298.854,450.451z"/>
		<path fill-rule="evenodd" fill="#FBFDFD" d="M563.591,434.738c2.597,7.351,4.848,13.726,7.101,20.1
			c0.636,1.801,0.247,2.587-1.899,2.869c-12.905,1.7-13.705,0.813-9.46-11.213C560.597,442.91,561.919,439.347,563.591,434.738z"/>
		<path fill-rule="evenodd" fill="#FBFDFD" d="M92.932,439.158c-0.008-9.617-0.008-9.617,9.816-9.431
			c9.415,0.179,13.311,3.101,13.125,9.85c-0.119,4.335-2.166,7.236-6.407,8.401c-4.732,1.301-9.584,0.669-14.388,0.779
			c-1.82,0.042-2.165-1.117-2.147-2.619C92.959,443.812,92.939,441.484,92.932,439.158z"/>
	</g>
</g>
</svg>
